<mxfile host="app.diagrams.net" modified="2023-09-19T08:51:07.982Z" agent="Mozilla/5.0 (Windows NT 10.0; Win64; x64) AppleWebKit/537.36 (KHTML, like Gecko) Chrome/117.0.0.0 Safari/537.36 Edg/117.0.2045.31" etag="mWdF1I3piqUy8_PgReJ6" version="21.7.5" type="github">
  <diagram name="Page-1" id="edf60f1a-56cd-e834-aa8a-f176f3a09ee4">
    <mxGraphModel dx="2931" dy="1626" grid="1" gridSize="10" guides="1" tooltips="1" connect="1" arrows="1" fold="1" page="1" pageScale="1" pageWidth="1100" pageHeight="850" background="none" math="0" shadow="0">
      <root>
        <mxCell id="0" />
        <mxCell id="1" parent="0" />
        <mxCell id="ZtFsmp1vTyqF3PQUhrU2-229" style="edgeStyle=orthogonalEdgeStyle;rounded=0;orthogonalLoop=1;jettySize=auto;html=1;exitX=0;exitY=0.5;exitDx=0;exitDy=0;entryX=0;entryY=0.5;entryDx=0;entryDy=0;" edge="1" parent="1" source="ZtFsmp1vTyqF3PQUhrU2-186" target="ZtFsmp1vTyqF3PQUhrU2-210">
          <mxGeometry relative="1" as="geometry" />
        </mxCell>
        <mxCell id="ZtFsmp1vTyqF3PQUhrU2-230" value="yes" style="edgeLabel;html=1;align=center;verticalAlign=middle;resizable=0;points=[];" vertex="1" connectable="0" parent="ZtFsmp1vTyqF3PQUhrU2-229">
          <mxGeometry x="-0.02" y="1" relative="1" as="geometry">
            <mxPoint as="offset" />
          </mxGeometry>
        </mxCell>
        <mxCell id="ZtFsmp1vTyqF3PQUhrU2-2" value="&lt;div align=&quot;left&quot;&gt;&lt;ul&gt;&lt;li&gt;CAN/CANFD&lt;/li&gt;&lt;li&gt;DOIP&lt;/li&gt;&lt;li&gt;SOMEIP&lt;/li&gt;&lt;/ul&gt;&lt;/div&gt;" style="edgeLabel;html=1;align=left;verticalAlign=middle;resizable=0;points=[];" vertex="1" connectable="0" parent="1">
          <mxGeometry x="870" y="511.5966592234216" as="geometry">
            <mxPoint x="-117" as="offset" />
          </mxGeometry>
        </mxCell>
        <mxCell id="ZtFsmp1vTyqF3PQUhrU2-5" value="" style="rounded=0;whiteSpace=wrap;html=1;" vertex="1" parent="1">
          <mxGeometry x="180" y="160" width="320" height="790" as="geometry" />
        </mxCell>
        <mxCell id="ZtFsmp1vTyqF3PQUhrU2-6" style="edgeStyle=orthogonalEdgeStyle;rounded=0;orthogonalLoop=1;jettySize=auto;html=1;entryX=0.5;entryY=1;entryDx=0;entryDy=0;" edge="1" parent="1" source="ZtFsmp1vTyqF3PQUhrU2-8" target="ZtFsmp1vTyqF3PQUhrU2-55">
          <mxGeometry relative="1" as="geometry">
            <mxPoint x="-240" y="260" as="targetPoint" />
          </mxGeometry>
        </mxCell>
        <mxCell id="ZtFsmp1vTyqF3PQUhrU2-8" value="Tencent COS" style="shape=cylinder3;whiteSpace=wrap;html=1;boundedLbl=1;backgroundOutline=1;size=15;" vertex="1" parent="1">
          <mxGeometry x="-290" y="348" width="140" height="130" as="geometry" />
        </mxCell>
        <mxCell id="ZtFsmp1vTyqF3PQUhrU2-9" style="edgeStyle=orthogonalEdgeStyle;rounded=0;orthogonalLoop=1;jettySize=auto;html=1;entryX=0;entryY=0.5;entryDx=0;entryDy=0;exitX=1;exitY=0.5;exitDx=0;exitDy=0;" edge="1" parent="1" source="ZtFsmp1vTyqF3PQUhrU2-55" target="ZtFsmp1vTyqF3PQUhrU2-25">
          <mxGeometry relative="1" as="geometry">
            <mxPoint x="-80" y="-37" as="sourcePoint" />
            <mxPoint x="30" y="-36.5" as="targetPoint" />
          </mxGeometry>
        </mxCell>
        <mxCell id="ZtFsmp1vTyqF3PQUhrU2-19" value="HOL Agent" style="text;html=1;strokeColor=none;fillColor=none;align=center;verticalAlign=middle;whiteSpace=wrap;rounded=0;" vertex="1" parent="1">
          <mxGeometry x="170" y="160" width="100" height="30" as="geometry" />
        </mxCell>
        <mxCell id="ZtFsmp1vTyqF3PQUhrU2-22" value="ECU" style="rounded=1;whiteSpace=wrap;html=1;" vertex="1" parent="1">
          <mxGeometry x="780" y="260" width="150" height="170" as="geometry" />
        </mxCell>
        <mxCell id="ZtFsmp1vTyqF3PQUhrU2-72" style="edgeStyle=orthogonalEdgeStyle;rounded=0;orthogonalLoop=1;jettySize=auto;html=1;exitX=1;exitY=0.5;exitDx=0;exitDy=0;" edge="1" parent="1" source="ZtFsmp1vTyqF3PQUhrU2-25">
          <mxGeometry relative="1" as="geometry">
            <mxPoint x="297.5714285714289" y="189.00000000000023" as="targetPoint" />
          </mxGeometry>
        </mxCell>
        <mxCell id="ZtFsmp1vTyqF3PQUhrU2-25" value="" style="rounded=1;whiteSpace=wrap;html=1;" vertex="1" parent="1">
          <mxGeometry x="-30" y="30" width="200" height="106" as="geometry" />
        </mxCell>
        <mxCell id="ZtFsmp1vTyqF3PQUhrU2-38" value="MySQL" style="text;whiteSpace=wrap;html=1;" vertex="1" parent="1">
          <mxGeometry x="-20" y="41" width="90" height="30" as="geometry" />
        </mxCell>
        <mxCell id="ZtFsmp1vTyqF3PQUhrU2-39" value="data record" style="edgeLabel;html=1;align=center;verticalAlign=middle;resizable=0;points=[];" vertex="1" connectable="0" parent="1">
          <mxGeometry x="640" y="381.5966592234217" as="geometry" />
        </mxCell>
        <mxCell id="ZtFsmp1vTyqF3PQUhrU2-41" value="BUS device (e.g., vector)" style="rounded=1;whiteSpace=wrap;html=1;fillColor=#FCCB30;" vertex="1" parent="1">
          <mxGeometry x="610" y="520" width="90" height="30" as="geometry" />
        </mxCell>
        <mxCell id="ZtFsmp1vTyqF3PQUhrU2-71" style="edgeStyle=orthogonalEdgeStyle;rounded=0;orthogonalLoop=1;jettySize=auto;html=1;exitX=0.5;exitY=1;exitDx=0;exitDy=0;entryX=0.875;entryY=-0.076;entryDx=0;entryDy=0;entryPerimeter=0;" edge="1" parent="1" source="ZtFsmp1vTyqF3PQUhrU2-54" target="ZtFsmp1vTyqF3PQUhrU2-57">
          <mxGeometry relative="1" as="geometry" />
        </mxCell>
        <mxCell id="ZtFsmp1vTyqF3PQUhrU2-54" value="用户在CEP创建任务" style="rounded=1;whiteSpace=wrap;html=1;" vertex="1" parent="1">
          <mxGeometry x="-280" y="-30" width="120" height="60" as="geometry" />
        </mxCell>
        <mxCell id="ZtFsmp1vTyqF3PQUhrU2-55" value="" style="rounded=1;whiteSpace=wrap;html=1;" vertex="1" parent="1">
          <mxGeometry x="-320" y="90" width="200" height="170" as="geometry" />
        </mxCell>
        <mxCell id="ZtFsmp1vTyqF3PQUhrU2-56" value="KPI report (online mode)" style="rounded=0;whiteSpace=wrap;html=1;fillColor=#FCCB30;" vertex="1" parent="1">
          <mxGeometry x="-310" y="198" width="180" height="20" as="geometry" />
        </mxCell>
        <mxCell id="ZtFsmp1vTyqF3PQUhrU2-57" value="CEP" style="text;whiteSpace=wrap;html=1;" vertex="1" parent="1">
          <mxGeometry x="-300" y="92" width="90" height="30" as="geometry" />
        </mxCell>
        <mxCell id="ZtFsmp1vTyqF3PQUhrU2-58" value="&lt;div&gt;backend adaption&lt;/div&gt;&lt;div&gt;(e.g.,json parser for new scenario type, MySQL interface, report interface)&lt;br&gt;&lt;/div&gt;" style="rounded=0;whiteSpace=wrap;html=1;fillColor=#FCCB30;" vertex="1" parent="1">
          <mxGeometry x="-310" y="122" width="180" height="67" as="geometry" />
        </mxCell>
        <mxCell id="ZtFsmp1vTyqF3PQUhrU2-73" value="pc1捕获statuz=-1的任务" style="text;whiteSpace=wrap;html=1;" vertex="1" parent="1">
          <mxGeometry x="190" y="41" width="90" height="30" as="geometry" />
        </mxCell>
        <mxCell id="ZtFsmp1vTyqF3PQUhrU2-93" value="pc1 pc2 replay" style="text;whiteSpace=wrap;html=1;" vertex="1" parent="1">
          <mxGeometry x="610" y="280" width="90" height="30" as="geometry" />
        </mxCell>
        <mxCell id="ZtFsmp1vTyqF3PQUhrU2-98" value="&lt;div style=&quot;border-color: var(--border-color);&quot;&gt;Master-PC1&lt;/div&gt;" style="swimlane;fontStyle=0;childLayout=stackLayout;horizontal=1;startSize=30;horizontalStack=0;resizeParent=1;resizeParentMax=0;resizeLast=0;collapsible=1;marginBottom=0;whiteSpace=wrap;html=1;" vertex="1" parent="1">
          <mxGeometry x="220" y="189" width="200" height="180" as="geometry">
            <mxRectangle x="220" y="189" width="100" height="30" as="alternateBounds" />
          </mxGeometry>
        </mxCell>
        <mxCell id="ZtFsmp1vTyqF3PQUhrU2-99" value="&lt;div style=&quot;background-color: rgb(242, 243, 247); color: rgb(38, 38, 38); font-family: &amp;quot;JetBrains Mono&amp;quot;, monospace; font-size: 9.8pt;&quot;&gt;init_state_action&lt;/div&gt;" style="text;strokeColor=none;fillColor=none;align=left;verticalAlign=middle;spacingLeft=4;spacingRight=4;overflow=hidden;points=[[0,0.5],[1,0.5]];portConstraint=eastwest;rotatable=0;whiteSpace=wrap;html=1;" vertex="1" parent="ZtFsmp1vTyqF3PQUhrU2-98">
          <mxGeometry y="30" width="200" height="30" as="geometry" />
        </mxCell>
        <mxCell id="ZtFsmp1vTyqF3PQUhrU2-138" style="edgeStyle=orthogonalEdgeStyle;rounded=0;orthogonalLoop=1;jettySize=auto;html=1;exitX=0;exitY=0.5;exitDx=0;exitDy=0;" edge="1" parent="ZtFsmp1vTyqF3PQUhrU2-98" source="ZtFsmp1vTyqF3PQUhrU2-100">
          <mxGeometry relative="1" as="geometry">
            <mxPoint x="-110" y="75.00000000000023" as="targetPoint" />
          </mxGeometry>
        </mxCell>
        <mxCell id="ZtFsmp1vTyqF3PQUhrU2-100" value="&lt;div style=&quot;background-color: rgb(242, 243, 247); color: rgb(38, 38, 38); font-family: &amp;quot;JetBrains Mono&amp;quot;, monospace; font-size: 9.8pt;&quot;&gt;run_state_action&lt;/div&gt;" style="text;strokeColor=none;fillColor=none;align=left;verticalAlign=middle;spacingLeft=4;spacingRight=4;overflow=hidden;points=[[0,0.5],[1,0.5]];portConstraint=eastwest;rotatable=0;whiteSpace=wrap;html=1;" vertex="1" parent="ZtFsmp1vTyqF3PQUhrU2-98">
          <mxGeometry y="60" width="200" height="30" as="geometry" />
        </mxCell>
        <mxCell id="ZtFsmp1vTyqF3PQUhrU2-136" value="Item" style="text;strokeColor=none;fillColor=none;spacingLeft=4;spacingRight=4;overflow=hidden;rotatable=0;points=[[0,0.5],[1,0.5]];portConstraint=eastwest;fontSize=12;whiteSpace=wrap;html=1;" vertex="1" parent="ZtFsmp1vTyqF3PQUhrU2-98">
          <mxGeometry y="90" width="200" height="30" as="geometry" />
        </mxCell>
        <mxCell id="ZtFsmp1vTyqF3PQUhrU2-137" value="Item" style="text;strokeColor=none;fillColor=none;spacingLeft=4;spacingRight=4;overflow=hidden;rotatable=0;points=[[0,0.5],[1,0.5]];portConstraint=eastwest;fontSize=12;whiteSpace=wrap;html=1;" vertex="1" parent="ZtFsmp1vTyqF3PQUhrU2-98">
          <mxGeometry y="120" width="200" height="30" as="geometry" />
        </mxCell>
        <mxCell id="ZtFsmp1vTyqF3PQUhrU2-101" value="dSPACE&lt;br style=&quot;border-color: var(--border-color); text-align: center;&quot;&gt;&lt;span style=&quot;text-align: center;&quot;&gt;replay_api_server.service&lt;/span&gt;" style="text;strokeColor=none;fillColor=none;align=left;verticalAlign=middle;spacingLeft=4;spacingRight=4;overflow=hidden;points=[[0,0.5],[1,0.5]];portConstraint=eastwest;rotatable=0;whiteSpace=wrap;html=1;" vertex="1" parent="ZtFsmp1vTyqF3PQUhrU2-98">
          <mxGeometry y="150" width="200" height="30" as="geometry" />
        </mxCell>
        <mxCell id="ZtFsmp1vTyqF3PQUhrU2-102" value="&lt;div style=&quot;border-color: var(--border-color);&quot;&gt;&lt;div style=&quot;border-color: var(--border-color);&quot;&gt;Slave-PC2&lt;/div&gt;&lt;/div&gt;" style="swimlane;fontStyle=0;childLayout=stackLayout;horizontal=1;startSize=30;horizontalStack=0;resizeParent=1;resizeParentMax=0;resizeLast=0;collapsible=1;marginBottom=0;whiteSpace=wrap;html=1;" vertex="1" parent="1">
          <mxGeometry x="210" y="420" width="200" height="120" as="geometry" />
        </mxCell>
        <mxCell id="ZtFsmp1vTyqF3PQUhrU2-103" value="Item 1" style="text;strokeColor=none;fillColor=none;align=left;verticalAlign=middle;spacingLeft=4;spacingRight=4;overflow=hidden;points=[[0,0.5],[1,0.5]];portConstraint=eastwest;rotatable=0;whiteSpace=wrap;html=1;" vertex="1" parent="ZtFsmp1vTyqF3PQUhrU2-102">
          <mxGeometry y="30" width="200" height="30" as="geometry" />
        </mxCell>
        <mxCell id="ZtFsmp1vTyqF3PQUhrU2-104" value="Item 2" style="text;strokeColor=none;fillColor=none;align=left;verticalAlign=middle;spacingLeft=4;spacingRight=4;overflow=hidden;points=[[0,0.5],[1,0.5]];portConstraint=eastwest;rotatable=0;whiteSpace=wrap;html=1;" vertex="1" parent="ZtFsmp1vTyqF3PQUhrU2-102">
          <mxGeometry y="60" width="200" height="30" as="geometry" />
        </mxCell>
        <mxCell id="ZtFsmp1vTyqF3PQUhrU2-105" value="dSPACE&lt;br style=&quot;border-color: var(--border-color); text-align: center;&quot;&gt;&lt;span style=&quot;text-align: center;&quot;&gt;replay_api_server.service&lt;/span&gt;" style="text;strokeColor=none;fillColor=none;align=left;verticalAlign=middle;spacingLeft=4;spacingRight=4;overflow=hidden;points=[[0,0.5],[1,0.5]];portConstraint=eastwest;rotatable=0;whiteSpace=wrap;html=1;" vertex="1" parent="ZtFsmp1vTyqF3PQUhrU2-102">
          <mxGeometry y="90" width="200" height="30" as="geometry" />
        </mxCell>
        <mxCell id="ZtFsmp1vTyqF3PQUhrU2-106" value="&lt;div style=&quot;border-color: var(--border-color);&quot;&gt;&lt;div style=&quot;border-color: var(--border-color);&quot;&gt;Slave-PC3&lt;/div&gt;&lt;/div&gt;" style="swimlane;fontStyle=0;childLayout=stackLayout;horizontal=1;startSize=30;horizontalStack=0;resizeParent=1;resizeParentMax=0;resizeLast=0;collapsible=1;marginBottom=0;whiteSpace=wrap;html=1;" vertex="1" parent="1">
          <mxGeometry x="210" y="560" width="200" height="120" as="geometry" />
        </mxCell>
        <mxCell id="ZtFsmp1vTyqF3PQUhrU2-107" value="Item 1" style="text;strokeColor=none;fillColor=none;align=left;verticalAlign=middle;spacingLeft=4;spacingRight=4;overflow=hidden;points=[[0,0.5],[1,0.5]];portConstraint=eastwest;rotatable=0;whiteSpace=wrap;html=1;" vertex="1" parent="ZtFsmp1vTyqF3PQUhrU2-106">
          <mxGeometry y="30" width="200" height="30" as="geometry" />
        </mxCell>
        <mxCell id="ZtFsmp1vTyqF3PQUhrU2-108" value="Item 2" style="text;strokeColor=none;fillColor=none;align=left;verticalAlign=middle;spacingLeft=4;spacingRight=4;overflow=hidden;points=[[0,0.5],[1,0.5]];portConstraint=eastwest;rotatable=0;whiteSpace=wrap;html=1;" vertex="1" parent="ZtFsmp1vTyqF3PQUhrU2-106">
          <mxGeometry y="60" width="200" height="30" as="geometry" />
        </mxCell>
        <mxCell id="ZtFsmp1vTyqF3PQUhrU2-109" value="iterm3" style="text;strokeColor=none;fillColor=none;align=left;verticalAlign=middle;spacingLeft=4;spacingRight=4;overflow=hidden;points=[[0,0.5],[1,0.5]];portConstraint=eastwest;rotatable=0;whiteSpace=wrap;html=1;" vertex="1" parent="ZtFsmp1vTyqF3PQUhrU2-106">
          <mxGeometry y="90" width="200" height="30" as="geometry" />
        </mxCell>
        <mxCell id="ZtFsmp1vTyqF3PQUhrU2-110" value="&lt;div style=&quot;border-color: var(--border-color);&quot;&gt;&lt;div style=&quot;border-color: var(--border-color);&quot;&gt;PC4-Windows PC&lt;br&gt;&lt;/div&gt;&lt;/div&gt;" style="swimlane;fontStyle=0;childLayout=stackLayout;horizontal=1;startSize=30;horizontalStack=0;resizeParent=1;resizeParentMax=0;resizeLast=0;collapsible=1;marginBottom=0;whiteSpace=wrap;html=1;" vertex="1" parent="1">
          <mxGeometry x="210" y="690" width="200" height="120" as="geometry" />
        </mxCell>
        <mxCell id="ZtFsmp1vTyqF3PQUhrU2-111" value="Item 1" style="text;strokeColor=none;fillColor=none;align=left;verticalAlign=middle;spacingLeft=4;spacingRight=4;overflow=hidden;points=[[0,0.5],[1,0.5]];portConstraint=eastwest;rotatable=0;whiteSpace=wrap;html=1;" vertex="1" parent="ZtFsmp1vTyqF3PQUhrU2-110">
          <mxGeometry y="30" width="200" height="30" as="geometry" />
        </mxCell>
        <mxCell id="ZtFsmp1vTyqF3PQUhrU2-112" value="Item 2" style="text;strokeColor=none;fillColor=none;align=left;verticalAlign=middle;spacingLeft=4;spacingRight=4;overflow=hidden;points=[[0,0.5],[1,0.5]];portConstraint=eastwest;rotatable=0;whiteSpace=wrap;html=1;" vertex="1" parent="ZtFsmp1vTyqF3PQUhrU2-110">
          <mxGeometry y="60" width="200" height="30" as="geometry" />
        </mxCell>
        <mxCell id="ZtFsmp1vTyqF3PQUhrU2-113" value="dSPACE&lt;br style=&quot;border-color: var(--border-color); text-align: center;&quot;&gt;&lt;div style=&quot;text-align: center;&quot;&gt;&lt;span style=&quot;background-color: initial;&quot;&gt;Control Desk/RtMaps&lt;/span&gt;&lt;/div&gt;" style="text;strokeColor=none;fillColor=none;align=left;verticalAlign=middle;spacingLeft=4;spacingRight=4;overflow=hidden;points=[[0,0.5],[1,0.5]];portConstraint=eastwest;rotatable=0;whiteSpace=wrap;html=1;" vertex="1" parent="ZtFsmp1vTyqF3PQUhrU2-110">
          <mxGeometry y="90" width="200" height="30" as="geometry" />
        </mxCell>
        <mxCell id="ZtFsmp1vTyqF3PQUhrU2-114" value="&lt;div style=&quot;border-color: var(--border-color);&quot;&gt;&lt;div style=&quot;border-color: var(--border-color);&quot;&gt;PC5-Windows PC&lt;br&gt;&lt;/div&gt;&lt;/div&gt;" style="swimlane;fontStyle=0;childLayout=stackLayout;horizontal=1;startSize=30;horizontalStack=0;resizeParent=1;resizeParentMax=0;resizeLast=0;collapsible=1;marginBottom=0;whiteSpace=wrap;html=1;" vertex="1" parent="1">
          <mxGeometry x="210" y="820" width="200" height="120" as="geometry" />
        </mxCell>
        <mxCell id="ZtFsmp1vTyqF3PQUhrU2-115" value="Item 1" style="text;strokeColor=none;fillColor=none;align=left;verticalAlign=middle;spacingLeft=4;spacingRight=4;overflow=hidden;points=[[0,0.5],[1,0.5]];portConstraint=eastwest;rotatable=0;whiteSpace=wrap;html=1;" vertex="1" parent="ZtFsmp1vTyqF3PQUhrU2-114">
          <mxGeometry y="30" width="200" height="30" as="geometry" />
        </mxCell>
        <mxCell id="ZtFsmp1vTyqF3PQUhrU2-116" value="Item 2" style="text;strokeColor=none;fillColor=none;align=left;verticalAlign=middle;spacingLeft=4;spacingRight=4;overflow=hidden;points=[[0,0.5],[1,0.5]];portConstraint=eastwest;rotatable=0;whiteSpace=wrap;html=1;" vertex="1" parent="ZtFsmp1vTyqF3PQUhrU2-114">
          <mxGeometry y="60" width="200" height="30" as="geometry" />
        </mxCell>
        <mxCell id="ZtFsmp1vTyqF3PQUhrU2-117" value="dSPACE&lt;br style=&quot;border-color: var(--border-color); text-align: center;&quot;&gt;CAN/DOIP/SOMEIP" style="text;strokeColor=none;fillColor=none;align=left;verticalAlign=middle;spacingLeft=4;spacingRight=4;overflow=hidden;points=[[0,0.5],[1,0.5]];portConstraint=eastwest;rotatable=0;whiteSpace=wrap;html=1;" vertex="1" parent="ZtFsmp1vTyqF3PQUhrU2-114">
          <mxGeometry y="90" width="200" height="30" as="geometry" />
        </mxCell>
        <mxCell id="ZtFsmp1vTyqF3PQUhrU2-185" value="Master-PC1" style="shape=table;startSize=30;container=1;collapsible=1;childLayout=tableLayout;fixedRows=1;rowLines=0;fontStyle=1;align=center;resizeLast=1;html=1;" vertex="1" parent="1">
          <mxGeometry x="-510" y="590" width="270" height="240" as="geometry" />
        </mxCell>
        <mxCell id="ZtFsmp1vTyqF3PQUhrU2-186" value="" style="shape=tableRow;horizontal=0;startSize=0;swimlaneHead=0;swimlaneBody=0;fillColor=none;collapsible=0;dropTarget=0;points=[[0,0.5],[1,0.5]];portConstraint=eastwest;top=0;left=0;right=0;bottom=1;" vertex="1" parent="ZtFsmp1vTyqF3PQUhrU2-185">
          <mxGeometry y="30" width="270" height="30" as="geometry" />
        </mxCell>
        <mxCell id="ZtFsmp1vTyqF3PQUhrU2-187" value="init_state_action" style="shape=partialRectangle;connectable=0;fillColor=none;top=0;left=0;bottom=0;right=0;fontStyle=1;overflow=hidden;whiteSpace=wrap;html=1;" vertex="1" parent="ZtFsmp1vTyqF3PQUhrU2-186">
          <mxGeometry width="120" height="30" as="geometry">
            <mxRectangle width="120" height="30" as="alternateBounds" />
          </mxGeometry>
        </mxCell>
        <mxCell id="ZtFsmp1vTyqF3PQUhrU2-188" value="all ok" style="shape=partialRectangle;connectable=0;fillColor=none;top=0;left=0;bottom=0;right=0;align=left;spacingLeft=6;fontStyle=5;overflow=hidden;whiteSpace=wrap;html=1;" vertex="1" parent="ZtFsmp1vTyqF3PQUhrU2-186">
          <mxGeometry x="120" width="150" height="30" as="geometry">
            <mxRectangle width="150" height="30" as="alternateBounds" />
          </mxGeometry>
        </mxCell>
        <mxCell id="ZtFsmp1vTyqF3PQUhrU2-189" value="" style="shape=tableRow;horizontal=0;startSize=0;swimlaneHead=0;swimlaneBody=0;fillColor=none;collapsible=0;dropTarget=0;points=[[0,0.5],[1,0.5]];portConstraint=eastwest;top=0;left=0;right=0;bottom=0;" vertex="1" parent="ZtFsmp1vTyqF3PQUhrU2-185">
          <mxGeometry y="60" width="270" height="30" as="geometry" />
        </mxCell>
        <mxCell id="ZtFsmp1vTyqF3PQUhrU2-190" value="" style="shape=partialRectangle;connectable=0;fillColor=none;top=0;left=0;bottom=0;right=0;editable=1;overflow=hidden;whiteSpace=wrap;html=1;" vertex="1" parent="ZtFsmp1vTyqF3PQUhrU2-189">
          <mxGeometry width="120" height="30" as="geometry">
            <mxRectangle width="120" height="30" as="alternateBounds" />
          </mxGeometry>
        </mxCell>
        <mxCell id="ZtFsmp1vTyqF3PQUhrU2-191" value="&lt;div style=&quot;background-color: rgb(242, 243, 247); color: rgb(38, 38, 38); font-family: &amp;quot;JetBrains Mono&amp;quot;, monospace; font-size: 9.8pt;&quot;&gt;prepare_data_action&lt;/div&gt;" style="shape=partialRectangle;connectable=0;fillColor=none;top=0;left=0;bottom=0;right=0;align=left;spacingLeft=6;overflow=hidden;whiteSpace=wrap;html=1;" vertex="1" parent="ZtFsmp1vTyqF3PQUhrU2-189">
          <mxGeometry x="120" width="150" height="30" as="geometry">
            <mxRectangle width="150" height="30" as="alternateBounds" />
          </mxGeometry>
        </mxCell>
        <mxCell id="ZtFsmp1vTyqF3PQUhrU2-210" value="" style="shape=tableRow;horizontal=0;startSize=0;swimlaneHead=0;swimlaneBody=0;fillColor=none;collapsible=0;dropTarget=0;points=[[0,0.5],[1,0.5]];portConstraint=eastwest;top=0;left=0;right=0;bottom=0;" vertex="1" parent="ZtFsmp1vTyqF3PQUhrU2-185">
          <mxGeometry y="90" width="270" height="30" as="geometry" />
        </mxCell>
        <mxCell id="ZtFsmp1vTyqF3PQUhrU2-211" value="run_state_action" style="shape=partialRectangle;connectable=0;fillColor=none;top=0;left=0;bottom=0;right=0;fontStyle=0;overflow=hidden;whiteSpace=wrap;html=1;" vertex="1" parent="ZtFsmp1vTyqF3PQUhrU2-210">
          <mxGeometry width="120" height="30" as="geometry">
            <mxRectangle width="120" height="30" as="alternateBounds" />
          </mxGeometry>
        </mxCell>
        <mxCell id="ZtFsmp1vTyqF3PQUhrU2-212" value="replay_action" style="shape=partialRectangle;connectable=0;fillColor=none;top=0;left=0;bottom=0;right=0;align=left;spacingLeft=6;fontStyle=0;overflow=hidden;whiteSpace=wrap;html=1;" vertex="1" parent="ZtFsmp1vTyqF3PQUhrU2-210">
          <mxGeometry x="120" width="150" height="30" as="geometry">
            <mxRectangle width="150" height="30" as="alternateBounds" />
          </mxGeometry>
        </mxCell>
        <mxCell id="ZtFsmp1vTyqF3PQUhrU2-198" value="" style="shape=tableRow;horizontal=0;startSize=0;swimlaneHead=0;swimlaneBody=0;fillColor=none;collapsible=0;dropTarget=0;points=[[0,0.5],[1,0.5]];portConstraint=eastwest;top=0;left=0;right=0;bottom=1;" vertex="1" parent="ZtFsmp1vTyqF3PQUhrU2-185">
          <mxGeometry y="120" width="270" height="30" as="geometry" />
        </mxCell>
        <mxCell id="ZtFsmp1vTyqF3PQUhrU2-199" value="" style="shape=partialRectangle;connectable=0;fillColor=none;top=0;left=0;bottom=0;right=0;fontStyle=1;overflow=hidden;whiteSpace=wrap;html=1;" vertex="1" parent="ZtFsmp1vTyqF3PQUhrU2-198">
          <mxGeometry width="120" height="30" as="geometry">
            <mxRectangle width="120" height="30" as="alternateBounds" />
          </mxGeometry>
        </mxCell>
        <mxCell id="ZtFsmp1vTyqF3PQUhrU2-200" value="&lt;div style=&quot;background-color: rgb(242, 243, 247); color: rgb(38, 38, 38); font-family: &amp;quot;JetBrains Mono&amp;quot;, monospace; font-size: 9.8pt;&quot;&gt;&lt;div style=&quot;font-size: 9.8pt;&quot;&gt;post_replay_action&lt;/div&gt;&lt;/div&gt;" style="shape=partialRectangle;connectable=0;fillColor=none;top=0;left=0;bottom=0;right=0;align=left;spacingLeft=6;fontStyle=5;overflow=hidden;whiteSpace=wrap;html=1;" vertex="1" parent="ZtFsmp1vTyqF3PQUhrU2-198">
          <mxGeometry x="120" width="150" height="30" as="geometry">
            <mxRectangle width="150" height="30" as="alternateBounds" />
          </mxGeometry>
        </mxCell>
        <mxCell id="ZtFsmp1vTyqF3PQUhrU2-192" value="" style="shape=tableRow;horizontal=0;startSize=0;swimlaneHead=0;swimlaneBody=0;fillColor=none;collapsible=0;dropTarget=0;points=[[0,0.5],[1,0.5]];portConstraint=eastwest;top=0;left=0;right=0;bottom=0;" vertex="1" parent="ZtFsmp1vTyqF3PQUhrU2-185">
          <mxGeometry y="150" width="270" height="30" as="geometry" />
        </mxCell>
        <mxCell id="ZtFsmp1vTyqF3PQUhrU2-193" value="&lt;div style=&quot;background-color: rgb(242, 243, 247); color: rgb(38, 38, 38); font-family: &amp;quot;JetBrains Mono&amp;quot;, monospace; font-size: 9.8pt;&quot;&gt;stop_state_action&lt;/div&gt;" style="shape=partialRectangle;connectable=0;fillColor=none;top=0;left=0;bottom=0;right=0;editable=1;overflow=hidden;whiteSpace=wrap;html=1;" vertex="1" parent="ZtFsmp1vTyqF3PQUhrU2-192">
          <mxGeometry width="120" height="30" as="geometry">
            <mxRectangle width="120" height="30" as="alternateBounds" />
          </mxGeometry>
        </mxCell>
        <mxCell id="ZtFsmp1vTyqF3PQUhrU2-194" value="" style="shape=partialRectangle;connectable=0;fillColor=none;top=0;left=0;bottom=0;right=0;align=left;spacingLeft=6;overflow=hidden;whiteSpace=wrap;html=1;" vertex="1" parent="ZtFsmp1vTyqF3PQUhrU2-192">
          <mxGeometry x="120" width="150" height="30" as="geometry">
            <mxRectangle width="150" height="30" as="alternateBounds" />
          </mxGeometry>
        </mxCell>
        <mxCell id="ZtFsmp1vTyqF3PQUhrU2-195" value="" style="shape=tableRow;horizontal=0;startSize=0;swimlaneHead=0;swimlaneBody=0;fillColor=none;collapsible=0;dropTarget=0;points=[[0,0.5],[1,0.5]];portConstraint=eastwest;top=0;left=0;right=0;bottom=0;" vertex="1" parent="ZtFsmp1vTyqF3PQUhrU2-185">
          <mxGeometry y="180" width="270" height="30" as="geometry" />
        </mxCell>
        <mxCell id="ZtFsmp1vTyqF3PQUhrU2-196" value="&lt;div style=&quot;background-color: rgb(242, 243, 247); color: rgb(38, 38, 38); font-family: &amp;quot;JetBrains Mono&amp;quot;, monospace; font-size: 9.8pt;&quot;&gt;reset_state_action&lt;/div&gt;" style="shape=partialRectangle;connectable=0;fillColor=none;top=0;left=0;bottom=0;right=0;editable=1;overflow=hidden;whiteSpace=wrap;html=1;" vertex="1" parent="ZtFsmp1vTyqF3PQUhrU2-195">
          <mxGeometry width="120" height="30" as="geometry">
            <mxRectangle width="120" height="30" as="alternateBounds" />
          </mxGeometry>
        </mxCell>
        <mxCell id="ZtFsmp1vTyqF3PQUhrU2-197" value="" style="shape=partialRectangle;connectable=0;fillColor=none;top=0;left=0;bottom=0;right=0;align=left;spacingLeft=6;overflow=hidden;whiteSpace=wrap;html=1;" vertex="1" parent="ZtFsmp1vTyqF3PQUhrU2-195">
          <mxGeometry x="120" width="150" height="30" as="geometry">
            <mxRectangle width="150" height="30" as="alternateBounds" />
          </mxGeometry>
        </mxCell>
        <mxCell id="ZtFsmp1vTyqF3PQUhrU2-213" value="" style="shape=tableRow;horizontal=0;startSize=0;swimlaneHead=0;swimlaneBody=0;fillColor=none;collapsible=0;dropTarget=0;points=[[0,0.5],[1,0.5]];portConstraint=eastwest;top=0;left=0;right=0;bottom=1;" vertex="1" parent="ZtFsmp1vTyqF3PQUhrU2-185">
          <mxGeometry y="210" width="270" height="30" as="geometry" />
        </mxCell>
        <mxCell id="ZtFsmp1vTyqF3PQUhrU2-214" value="&lt;div style=&quot;background-color: rgb(242, 243, 247); color: rgb(38, 38, 38); font-family: &amp;quot;JetBrains Mono&amp;quot;, monospace; font-size: 9.8pt;&quot;&gt;terminal_action&lt;/div&gt;" style="shape=partialRectangle;connectable=0;fillColor=none;top=0;left=0;bottom=0;right=0;fontStyle=1;overflow=hidden;whiteSpace=wrap;html=1;" vertex="1" parent="ZtFsmp1vTyqF3PQUhrU2-213">
          <mxGeometry width="120" height="30" as="geometry">
            <mxRectangle width="120" height="30" as="alternateBounds" />
          </mxGeometry>
        </mxCell>
        <mxCell id="ZtFsmp1vTyqF3PQUhrU2-215" value="" style="shape=partialRectangle;connectable=0;fillColor=none;top=0;left=0;bottom=0;right=0;align=left;spacingLeft=6;fontStyle=5;overflow=hidden;whiteSpace=wrap;html=1;" vertex="1" parent="ZtFsmp1vTyqF3PQUhrU2-213">
          <mxGeometry x="120" width="150" height="30" as="geometry">
            <mxRectangle width="150" height="30" as="alternateBounds" />
          </mxGeometry>
        </mxCell>
        <mxCell id="ZtFsmp1vTyqF3PQUhrU2-217" value="" style="shape=partialRectangle;connectable=0;fillColor=none;top=0;left=0;bottom=0;right=0;editable=1;overflow=hidden;whiteSpace=wrap;html=1;" vertex="1" parent="1">
          <mxGeometry x="-510" y="650" width="120" height="30" as="geometry">
            <mxRectangle width="120" height="30" as="alternateBounds" />
          </mxGeometry>
        </mxCell>
        <mxCell id="ZtFsmp1vTyqF3PQUhrU2-222" value="" style="endArrow=none;html=1;rounded=0;entryX=1.002;entryY=-0.01;entryDx=0;entryDy=0;entryPerimeter=0;" edge="1" parent="1" target="ZtFsmp1vTyqF3PQUhrU2-195">
          <mxGeometry relative="1" as="geometry">
            <mxPoint x="-510" y="770" as="sourcePoint" />
            <mxPoint x="-350" y="770" as="targetPoint" />
          </mxGeometry>
        </mxCell>
        <mxCell id="ZtFsmp1vTyqF3PQUhrU2-226" value="" style="endArrow=none;html=1;rounded=0;" edge="1" parent="1" target="ZtFsmp1vTyqF3PQUhrU2-213">
          <mxGeometry relative="1" as="geometry">
            <mxPoint x="-510" y="800" as="sourcePoint" />
            <mxPoint x="-350" y="800" as="targetPoint" />
          </mxGeometry>
        </mxCell>
        <mxCell id="ZtFsmp1vTyqF3PQUhrU2-227" value="" style="endArrow=none;html=1;rounded=0;" edge="1" parent="1">
          <mxGeometry relative="1" as="geometry">
            <mxPoint x="-510" y="800" as="sourcePoint" />
            <mxPoint x="-240" y="801" as="targetPoint" />
          </mxGeometry>
        </mxCell>
      </root>
    </mxGraphModel>
  </diagram>
</mxfile>
